<svg xmlns="http://www.w3.org/2000/svg" viewBox="0 0 48 56" shape-rendering="crispEdges" role="img"><title>Director · cabello gris y tablet</title><path fill="#263448" d="M14 43h8v8H14z"/><path fill="#263448" d="M26 43h8v8H26z"/><path fill="#263448" d="M12 50h10v4H12z"/><path fill="#263448" d="M26 50h12v4H26z"/><path fill="#83929c" d="M14 50h6v1H14z"/><path fill="#83929c" d="M28 50h6v1H28z"/><path fill="#263448" d="M11 28h26v18H11z"/><path fill="#da796e" d="M13 30h22v14H13z"/><path fill="#ac585b" d="M14 30h3v12H14z"/><path fill="#ac585b" d="M31 31h4v13H31z"/><path fill="#ffdab2" d="M21 29h6v3H21z"/><path fill="#f9e6c7" d="M22 34h4v9H22z"/><path fill="#ac585b" d="M24 35h1v7H24z"/><path fill="#263448" d="M9 12h30v20H9z"/><path fill="#edb387" d="M11 14h26v16H11z"/><path fill="#ffdab2" d="M13 15h21v10H13z"/><path fill="#edb387" d="M32 18h5v10H32z"/><path fill="#edb387" d="M15 25h17v4H15z"/><path fill="#263448" d="M16 19h3v3H16z"/><path fill="#263448" d="M29 19h3v3H29z"/><path fill="#c77e69" d="M23 21h2v3H23z"/><path fill="#92596a" d="M21 27h7v1H21z"/><path fill="#e88f7c" d="M13 24h4v2H13z"/><path fill="#e88f7c" d="M31 24h3v2H31z"/><path fill="#263448" d="M11 7h24v5H11z"/><path fill="#263448" d="M8 11h31v5H8z"/><path fill="#b7bbc3" d="M11 9h23v5H11z"/><path fill="#b7bbc3" d="M10 14h5v6H10z"/><path fill="#b7bbc3" d="M32 14h5v4H32z"/><path fill="#b7bbc3" d="M15 11h8v5H15z"/><path fill="#263448" d="M5 31h8v13H5z"/><path fill="#da796e" d="M7 33h4v9H7z"/><path fill="#edb387" d="M7 40h4v5H7z"/><path fill="#263448" d="M35 31h8v13H35z"/><path fill="#da796e" d="M37 33h4v9H37z"/><path fill="#ffdab2" d="M37 40h4v5H37z"/><path fill="#e0e1db" d="M13 9h20v3H13z"/><path fill="#a7aab5" d="M10 14h5v7H10z"/><path fill="#e0e1db" d="M34 14h3v8H34z"/><path fill="#263448" d="M25 32h17v15H25z"/><path fill="#3f596e" d="M27 34h13v11H27z"/><path fill="#9bd5d3" d="M28 35h11v7H28z"/><path fill="#f9ecc9" d="M30 37h7v1H30z"/><path fill="#b7bbc3" d="M31 44h5v1H31z"/><path fill="#ffdab2" d="M24 38h4v5H24z"/></svg>
