<svg xmlns="http://www.w3.org/2000/svg" viewBox="0 0 48 56" shape-rendering="crispEdges" role="img"><title>Analytics · búho analítico</title><path fill="#263448" d="M14 43h8v8H14z"/><path fill="#263448" d="M26 43h8v8H26z"/><path fill="#263448" d="M12 50h10v4H12z"/><path fill="#263448" d="M26 50h12v4H26z"/><path fill="#83929c" d="M14 50h6v1H14z"/><path fill="#83929c" d="M28 50h6v1H28z"/><path fill="#263448" d="M11 25h27v22H11z"/><path fill="#8c77bb" d="M13 27h23v18H13z"/><path fill="#c2a7d2" d="M15 28h19v13H15z"/><path fill="#765fa0" d="M18 30h3v3H18z"/><path fill="#765fa0" d="M27 30h3v3H27z"/><path fill="#765fa0" d="M22 37h4v3H22z"/><path fill="#263448" d="M8 6h8v15H8z"/><path fill="#263448" d="M33 6h8v15H33z"/><path fill="#9278b1" d="M10 8h6v10H10z"/><path fill="#9278b1" d="M33 8h6v10H33z"/><path fill="#263448" d="M8 13h34v19H8z"/><path fill="#9b81bc" d="M10 15h30v15H10z"/><path fill="#263448" d="M10 16h14v13H10z"/><path fill="#f4dec3" d="M12 18h10v9H12z"/><path fill="#263448" d="M26 16h14v13H26z"/><path fill="#f4dec3" d="M28 18h10v9H28z"/><path fill="#694e8b" d="M15 19h6v7H15z"/><path fill="#694e8b" d="M29 19h6v7H29z"/><path fill="#263448" d="M17 20h3v4H17z"/><path fill="#263448" d="M30 20h3v4H30z"/><path fill="#fff" d="M17 20h1v2H17z"/><path fill="#fff" d="M30 20h1v2H30z"/><path fill="#eeb967" d="M22 25h6v3H22z"/><path fill="#eeb967" d="M24 28h2v3H24z"/><path fill="#263448" d="M4 31h9v13H4z"/><path fill="#7861a0" d="M6 33h5v9H6z"/><path fill="#263448" d="M37 31h8v13H37z"/><path fill="#7861a0" d="M39 33h4v9H39z"/><path fill="#eeb967" d="M13 50h8v3H13z"/><path fill="#eeb967" d="M27 50h8v3H27z"/></svg>
